<svg xmlns="http://www.w3.org/2000/svg" width="100" height="100" viewBox="0 0 100 100"><path fill="#E57920" d="M50 89.818c-10.101 0-29.202-1.319-29.202-6.312v-8.722c0-4.819 14.69-7.342 29.202-7.342 14.512 0 29.203 2.521 29.203 7.342v8.722c0 4.993-19.101 6.312-29.203 6.312z"/><path fill="#844B20" d="M50 68.396c15.604 0 28.252 2.86 28.252 6.391v8.722c0 2.959-12.648 5.359-28.252 5.359-15.603 0-28.251-2.4-28.251-5.359v-8.722c0-3.53 12.648-6.391 28.251-6.391m0-1.902c-7.683 0-14.927.682-20.396 1.919-6.565 1.483-9.756 3.569-9.756 6.373v8.722c0 2.624 3.029 4.369 9.822 5.657 5.45 1.034 12.67 1.604 20.331 1.604s14.882-.569 20.332-1.604c6.792-1.288 9.821-3.033 9.821-5.657v-8.722c0-2.804-3.191-4.89-9.758-6.373-5.469-1.237-12.712-1.919-20.396-1.919z"/><ellipse fill="#F8A728" cx="50" cy="75.112" rx="27.76" ry="6.295"/><path fill="#5BB2C5" stroke="#316887" stroke-width="1.901" stroke-linecap="round" stroke-linejoin="round" stroke-miterlimit="10" d="M70.666 63.496s-.575-4.667-6.807-8.036l-8.201-5.051s-3.444-2.525.328-3.979l6.725-3.98s7.309-3.47 7.381-8.726l.656-8.266h-41.66l.821 8.266c.073 5.256 7.38 8.726 7.38 8.726l6.725 3.98c3.772 1.454.328 3.979.328 3.979l-8.201 5.051c-6.232 3.369-6.807 8.036-6.807 8.036l-2.542 11.176C32.287 80.413 50 79.876 50 79.876s17.713.537 23.207-5.204l-2.541-11.176z"/><path fill="#EAC37E" d="M36.967 37.321s8.564-3.598 21.889-1.071c0 0 7.078.842 2.321 3.674 0 0-5.739 2.833-9.59 5.28 0 0-1.502 2.374-1.588 3.138l-1.845-3.596s-2.45-1.838-7.38-4.134c0 0-5.883-2.143-3.807-3.291z"/><path fill="#DB9151" d="M42.596 41.495c3.71 1.866 5.559 3.251 5.559 3.251L50 48.342c.086-.764 1.588-3.138 1.588-3.138 2.01-1.277 4.525-2.656 6.48-3.686-6.061-2.404-11.551-1.496-15.472-.023zM29.499 73.447s5.249 4.211 19.928 4.361c0 0 18.862-.459 20.419-4.668l-5.576-5.435-8.119-5.894L50 58.98l-11.727 5.74c0 .003-6.232 3.218-8.774 8.727z"/><path fill="#EDB06C" d="M42.462 68.243s1.312.306 4.756 3.062c0 0 8.857 3.215 11.81-1.99 0 0 2.672-.789 5.74-1.121l-.498-.485-8.119-5.894L50 58.98l-11.727 5.74s-2.172 1.127-4.473 3.178c1.107.489 3.541 1.015 8.662.345z"/><path opacity=".4" fill="#1E6E8E" d="M44.342 50.409l-8.201 5.051c-6.232 3.369-6.807 8.036-6.807 8.036l-2.542 11.176c1.776 1.855 4.831 3.053 8.149 3.827C34.79 61.27 47.543 51.52 47.543 51.52c.875-.25 0-5.052 0-5.052-13.292-7.24-11.02-17.78-11.02-17.78l-.648-3.229h-6.787l.821 8.266c.073 5.256 7.38 8.726 7.38 8.726l6.725 3.98c3.772 1.453.328 3.978.328 3.978z"/><path opacity=".3" fill="#FFF" d="M54.346 46.618l6.963-3.792s7.568-3.307 7.645-8.314l.679-7.877H52.617c.883.481 1.48.804 1.48.804s2.573 9.148-3.639 17.629c0 0-1.796 6.146-.948 6.146 0 0 14.885 7.948 14.492 22.425l7.84-1.463-2.297-9.294s-.596-4.448-7.049-7.657l-8.492-4.813c.002-.002-3.566-2.408.342-3.794z"/><path fill="#F48702" d="M49.385 30.534c-2.926 0-28.587-.133-28.587-4.734v-6.156c0-5.399 27.419-5.461 28.587-5.461s28.588.062 28.588 5.461V25.8c0 4.601-25.662 4.734-28.588 4.734z"/><path fill="#844B20" d="M49.385 15.133c15.264 0 27.637 2.02 27.637 4.511V25.8c0 2.09-12.373 3.783-27.637 3.783-15.263 0-27.636-1.693-27.636-3.783v-6.156c0-2.492 12.373-4.511 27.636-4.511m0-1.902c-7.481 0-14.53.478-19.848 1.346-6.792 1.108-9.689 2.624-9.689 5.066V25.8c0 2.352 2.639 3.587 9.738 4.559 5.302.726 12.334 1.125 19.8 1.125 7.465 0 14.498-.4 19.799-1.125 7.1-.972 9.738-2.208 9.738-4.559v-6.156c0-2.442-2.896-3.958-9.689-5.066-5.319-.869-12.368-1.347-19.849-1.347z"/><path fill="#F8C60F" d="M76.326 19.294c.457 2.047-12.126 3.785-27.085 3.785s-28.283-2.019-27.085-3.785c1.285-1.896 12.126-3.785 27.085-3.785s26.724 2.169 27.085 3.785z"/><path d="M67.796 74.022c1.162-.136 1.814-2.408 1.454-5.077-.358-2.67-1.594-4.724-2.757-4.591-1.163.137-1.814 2.411-1.455 5.079.359 2.671 1.594 4.723 2.758 4.589zm-4.989-11.607c.484.771 1.38 1.127 1.997.792.618-.336.726-1.233.24-2.007-.485-.771-1.381-1.127-1.998-.792-.618.336-.726 1.232-.239 2.007zm2.174-26.138c.749-1.062 1.063-2.104.701-2.323s-1.265.462-2.014 1.526c-.748 1.062-1.063 2.102-.7 2.323.362.219 1.264-.464 2.013-1.526zm-2.822-13.181c2.697-.131 4.862-.626 4.834-1.105-.025-.479-2.234-.762-4.932-.631-2.696.13-4.861.625-4.834 1.105.027.48 2.235.763 4.932.631zm9.04-1.974c-.055-.355-.788-.553-1.636-.439-.848.114-1.49.495-1.436.851s.788.553 1.636.439c.848-.114 1.491-.494 1.436-.851zm-6.737 58.514c-2.67.372-4.773 1.061-4.696 1.536s2.305.558 4.976.185c2.67-.373 4.772-1.062 4.695-1.537-.078-.475-2.305-.557-4.975-.184zm9.07-1.059c-.093-.349-.843-.479-1.674-.291-.833.19-1.432.627-1.34.977.091.351.841.479 1.674.29.832-.19 1.432-.626 1.34-.976z" fill="#FDFBDB"/></svg>