<svg xmlns="http://www.w3.org/2000/svg" width="100" height="100" viewBox="0 0 100 100"><path fill="#F48702" d="M65.228 89.355c-.236 0-.469-.084-.654-.242a1.005 1.005 0 0 1-.326-.961c.168-.818 3.852-20.139-19.287-31.229a1.18 1.18 0 0 1-.138-.08c-.237-.166-23.654-16.774-17.486-42.968a1 1 0 0 1 .973-.771h2.667a1 1 0 0 1 .316.051l5 1.667a1 1 0 0 1 .66 1.166c-.061.272-5.804 27.317 14.387 37.649 1.769.504 21.757 6.838 19.634 33.047a1.002 1.002 0 0 1-.652.857l-4.75 1.75a.96.96 0 0 1-.344.064z"/><path fill="#844B20" d="M30.977 14.105l5 1.667s-6.25 28.022 15 38.802c0 0 21.167 5.281 19 32.031l-4.75 1.75s4.334-20.75-19.833-32.334c0 0-23.167-16.083-17.083-41.917h2.666m0-1.999H28.31a2 2 0 0 0-1.947 1.542c-2.621 11.13-.351 22.28 6.564 32.245 5.177 7.46 11.077 11.601 11.325 11.772.088.063.18.115.276.162 22.494 10.781 18.779 29.928 18.74 30.119a2.002 2.002 0 0 0 1.957 2.41c.232 0 .467-.041.691-.123l4.75-1.75a2.001 2.001 0 0 0 1.303-1.717c1.184-14.617-4.414-23.115-9.32-27.672-4.779-4.441-9.783-6.061-10.945-6.394C32.28 42.669 37.87 16.472 37.929 16.208a2 2 0 0 0-1.32-2.333l-5-1.667a2.002 2.002 0 0 0-.632-.103z"/><path fill="#F6491E" stroke="#913D27" stroke-miterlimit="10" d="M34.144 18.439l35.988.584-.406 6.083-34.605-.249s-3.019.456-3.227-3.918c0 0 0-2.292 2.25-2.5z"/><path fill="#00CFBC" stroke="#28767C" stroke-width="1.003" stroke-miterlimit="10" d="M68.976 28.316l-33.904-.798s-2.714-.206-2.505 3.097c0 0 .208 3.511 3.553 3.345l32.229.335.627-5.979z"/><path fill="#F6491E" stroke="#913D27" stroke-miterlimit="10" d="M67.935 36.647l-31.522-.786s-2.645.202-1.686 3.619c0 0 .792 2.874 3.708 2.833h26.708l2.792-5.666z"/><path fill="#FF6A4D" d="M35.222 22.398l34.697.459.213-3.209-34.895-.566c-.339 1.046-.438 2.188-.015 3.316z"/><path fill="#FFD02A" d="M30.737 14.105H28.31c-6.083 25.834 17.083 41.917 17.083 41.917.019.01.034.02.054.027-18.677-16.173-15.853-36.605-14.71-41.944z"/><path fill="#00E4CD" d="M36.262 31.481c.268.298 22.698.929 32.319 1.186l.395-3.774L37 28.139c-.339.999-.995 3.057-.738 3.342z"/><path fill="#00CFBC" stroke="#28767C" stroke-miterlimit="10" d="M61.935 44.522l-22.003-.113s-1.913.237-1.372 2.279c0 0 .61 2.515 4.659 2.091l15.299.048 3.417-4.305z"/><path fill="#00E4CD" d="M41.043 47.134l18.302 1.168 2.59-3.264-20.438-.105c-.462.557-.971 1.434-.454 2.201z"/><path fill="#FF6A4D" d="M38.463 40.084l27.545 1.033 1.926-3.908-29.848-.744c-.367.967-.724 2.572.377 3.619z"/><path fill="#F48702" d="M28.328 86.773c-.406 0-.777-.248-.929-.631-2.375-5.988-2.399-11.71-.074-17.011C32.274 57.854 46 52.479 46.583 52.256c26.368-8.458 20.292-35.198 20.02-36.333a1 1 0 0 1 .613-1.167c1.236-.477 2.418-.718 3.512-.718 2.699 0 3.967 1.432 4.102 1.595a.994.994 0 0 1 .23.607c1.021 32.36-24.331 41.637-24.587 41.727-7.829 2.156-12.994 5.844-15.417 10.977-3.553 7.527.043 15.754.08 15.836a1 1 0 0 1-.814 1.404l-5.896.584a1.072 1.072 0 0 1-.098.005z"/><path fill="#844B20" d="M70.728 15.039c2.309 0 3.332 1.234 3.332 1.234 1.01 32-23.917 40.75-23.917 40.75-25.435 7-15.918 28.166-15.918 28.166l-5.896.584C19.57 63.689 46.942 53.189 46.942 53.189c27.539-8.833 20.634-37.5 20.634-37.5 1.239-.477 2.286-.65 3.152-.65m0-2c-1.217 0-2.52.264-3.871.784a2 2 0 0 0-1.227 2.335c.016.066 1.611 6.941-.031 14.694C63.45 41 56.966 47.874 46.33 51.285c-.035.012-.07.023-.104.037-.599.229-14.701 5.75-19.815 17.406-2.438 5.555-2.417 11.537.06 17.781a2 2 0 0 0 2.056 1.254l5.896-.584a2 2 0 0 0 1.627-2.81c-.033-.074-3.44-7.918-.08-15.016 2.296-4.85 7.244-8.35 14.705-10.402.045-.012.089-.025.132-.041.272-.096 6.742-2.414 13.099-8.857 5.846-5.924 12.699-16.604 12.156-33.843a1.996 1.996 0 0 0-.461-1.215c-.168-.2-1.717-1.956-4.873-1.956z"/><path fill="#F6491E" stroke="#913D27" stroke-miterlimit="10" d="M56.726 60.771l-17.166-.625s-1.917-.041-3.75 2.5c0 0-1.406 2.039.734 2.041l24.14.959-3.958-4.875z"/><path fill="#00CFBC" stroke="#28767C" stroke-width=".961" stroke-miterlimit="10" d="M62.413 68.295l-28.222-.92s-2.481-.041-2.322 3.803c0 0-.28 2.203 2.802 2.242l30.263.561-2.521-5.686z"/><path fill="#F6491E" stroke="#913D27" stroke-miterlimit="10" d="M65.769 76.271c.102 0-22.407-.633-30.83-.871l-3.129-.088s-1.958.459-1.792 3.543c0 0 .292 2.998 3.25 2.832l33.707.418-1.206-5.834z"/><path d="M40.201 63.006l18.782 1.393-2.35-2.893-15.406-.561c-.857.569-2.051 1.549-1.026 2.061zm18.245 3.291l2.146.084-.561-.689-1.585.605z" fill="#FF6A4D"/><path fill="#FFD02A" d="M45.647 57.438c26.247-9.584 22.665-32.332 22.665-32.332l-.002-.001c-.369 9.179-4.08 22.539-21.369 28.084 0 0-15.874 6.102-19.566 18.771 4.653-11.329 18.272-14.522 18.272-14.522z"/><path fill="#FF6A4D" d="M33.626 79.98l32.938.76-.795-3.844c.102 0-22.407-.633-30.83-.871l-1.154-.031c-.324.848-.827 2.592-.159 3.986z"/><path fill="#00E4CD" d="M35.335 71.051l28.422.988-1.344-3.029-25.767-.842c-.773.924-1.775 2.316-1.311 2.883z"/><path fill="#F7A326" d="M69.976 86.605c1.459-18.016-7.658-26.285-13.771-29.77l-5.515 2.16c18.181 11.83 14.537 29.359 14.537 29.359l4.749-1.749z"/></svg>