<svg xmlns="http://www.w3.org/2000/svg" width="100" height="100" viewBox="0 0 100 100"><path fill="#1E1E0D" d="M58.364 15.403l1.993.35.023 1.046 2.051-.049 2.874-.069-1.326 1.932s-2.038.657-2.073.657l-1.197.029.031 1.366 1.207.427s.947 1.041.401 1.13c-.546.09-3.831.092-3.831.092s-1.147.688-1.143.928c.006.239-1.27 1.41-.241 1.462 1.027.051 4.241-.102 4.241-.102s-.082 2.509-.492 2.519-3.315-1.364-3.315-1.364 1.414 1.561-1.217 2.005c-2.63.442-3.38.536-3.38.536l2.668-3.161s1.613-1.272-.217-.469c-1.83.805-1.218.639-1.83.805-.611.166-2.011-1.168-2.023-1.7-.012-.531-.594-2.112.645-1.838 1.238.273 3.546-.616 3.546-.616s1.271-1.322 1.616-1.179c.345.143.967-1.467.967-1.467L56.77 17.57l1.221-.485 1.588.57-1.215-2.252z"/><path fill="#D88832" d="M44.266 93.957c-.166 0-.331-.041-.479-.121l-2.598-1.42a1.002 1.002 0 0 1-.493-.645l-.931-3.869L14.85 71.109l.026 1.201c.007.27-.096.533-.284.725a1.03 1.03 0 0 1-.727.305c-.138 0-.326 0-3.033-.723a1 1 0 0 1-.715-.73c-.91-3.77-2.856-22.899-2.938-23.712-.193-1.225.022-2.295.644-3.125.728-.971 1.767-1.263 2.158-1.342C21.15 39.32 49.408 30.717 49.693 30.631c.087-.026.177-.041.267-.043l2.795-.067c.071 0 .142.008.212.022 8.763 1.896 35.367 15.834 37.308 16.854 1.543.548 1.711 2.64 1.377 4.295-.899 6.92-2.307 18.268-2.32 19.828.03.1.046.203.045.307-.011.633-.016.896-4.057 2.721a1 1 0 0 1-1.399-.754l-.396-2.477c-9.052 3.887-30.162 14.209-33.646 15.916l-.54 4.602a1 1 0 0 1-.703.842l-4.08 1.236a.958.958 0 0 1-.29.044z"/><path fill="#4F3620" d="M52.755 31.521c8.872 1.92 37.127 16.801 37.127 16.801 1.35.4.789 3.172.789 3.172s-2.624 20.139-2.313 20.291c.312.154-3.449 1.852-3.449 1.852l-.596-3.737C75.258 73.648 48.95 86.576 48.95 86.576l-.604 5.145-4.08 1.236-2.598-1.42-1.022-4.248-26.839-18.088.07 3.135c0 .002-.004.004-.012.004-.194 0-2.776-.688-2.776-.688-.905-3.748-2.916-23.578-2.916-23.578-.478-3.065 2.081-3.398 2.081-3.398 11.194-4.412 39.73-13.088 39.73-13.088l2.771-.067m0-2h-.048l-2.771.066a1.98 1.98 0 0 0-.534.086c-1.162.354-28.458 8.664-39.709 13.073-.59.132-1.793.534-2.67 1.703-.538.718-1.116 1.97-.834 3.875.136 1.34 2.044 20.019 2.956 23.796a1.999 1.999 0 0 0 1.429 1.463c2.834.756 3.016.756 3.291.756a2.001 2.001 0 0 0 1.917-1.394l23.102 15.568.84 3.492a2 2 0 0 0 .985 1.287l2.598 1.42a2.002 2.002 0 0 0 1.54.158l4.079-1.236a2.001 2.001 0 0 0 1.406-1.682l.477-4.061c4.43-2.168 22.766-11.117 31.933-15.145l.192 1.203c.098.617.478 1.15 1.025 1.447a2.014 2.014 0 0 0 1.772.062c3.585-1.619 4.62-2.152 4.644-3.615a1.947 1.947 0 0 0-.04-.432c.068-1.734 1.216-11.189 2.311-19.596.39-2.024.092-4.56-1.968-5.337-2.386-1.254-28.69-15.008-37.5-16.915a2.307 2.307 0 0 0-.423-.042z"/><path fill="#AF7031" d="M47.704 63.973c-1.654-.5-6.636 4.975-6.636 4.975l.431 21.705.5 1.271 2.598 1.42 4.08-1.236.604-5.145s2.541-1.43 6.25-3.467c.537-5.244-.852-12.449-.965-14.373-.16-2.67-5.209-4.65-6.862-5.15z"/><path fill="#7C4D1E" d="M90.213 48.709S61.957 33.828 53.086 31.908l-2.771.066s-15.372 4.229-28.1 8.238l25.354 29.803-.147 22.471 1.255-.379.604-5.145S75.59 74.034 84.643 70.286l.597 3.736s3.378-1.502 3.45-1.852c.235-1.145 2.313-20.291 2.313-20.291s.245-2.428-.79-3.17z"/><path fill="#FFC440" d="M41.635 68.025s4.016 1.939 8.27-.197L90.28 48.925c-.144-.355-.411-.674-.892-.867 0 0-27.679-13.965-36.371-15.762l-2.717.064s-27.538 7.947-38.513 12.107c0 0-1.141.151-1.74 1.137 5.136 4.261 23.322 18.085 31.588 22.421z"/><g fill="#F4B056" stroke="#935F34" stroke-miterlimit="10"><path d="M77.987 49.785L50.164 63.473M69.58 41.771L38.339 56.838m19.059-18.051l-29.473 14.5m22.912-17.638L22.215 47.998" stroke-width=".89"/><path d="M19.491 45.464l30.673 18.009M29.905 41.212l29.365 17.78M40.318 36.891l31.241 18.341M48.647 33.761l29.398 17.205" stroke-width=".982"/></g><path fill="#EFE7D5" d="M52.343 38.701c-.649-.399-3.921-2.444-4.61-3.536l-.109-.172.001-.204c.005-.989.059-9.718.625-11.551l.033-.106.064-.091c.068-.097 6.857-9.708 7.944-11.202.235-.327.607-.343 1.245-.343 1.207 0 4.267.191 7.206.916 3.759.926 7.15 2.639 7.293 2.711l.16.082 2.05 3.004-.227.383c-.296.502-7.3 12.344-10.525 15.752l-.104.108-.139.057s-8.238 3.396-10.273 4.243l-.33.137-.304-.188z"/><path fill="#514C47" d="M57.536 12.195c1.302 0 4.259.21 7.039.895 3.724.917 7.143 2.655 7.143 2.655l1.698 2.489s-7.223 12.237-10.432 15.627c0 0-8.24 3.396-10.275 4.243 0 0-3.747-2.304-4.385-3.313 0 0 .042-9.561.594-11.348 0 0 6.843-9.687 7.939-11.194.025-.033.27-.054.679-.054m.001-1.4c-.668 0-1.357 0-1.815.636-1.086 1.493-7.668 10.809-7.947 11.205l-.129.182-.066.212c-.583 1.89-.648 10.124-.656 11.754l-.001.409.218.345c.732 1.159 3.625 3.015 4.835 3.759l.61.375.661-.275c2.034-.846 10.271-4.241 10.271-4.241l.277-.114.206-.218c3.28-3.464 10.322-15.373 10.621-15.878l.452-.766-.502-.735-1.698-2.489-.202-.296-.319-.163c-.146-.074-3.606-1.822-7.442-2.767-3.006-.74-6.138-.935-7.374-.935z"/><path fill="#FEED87" d="M49.45 67.547l1.013-2.623 5.013-1.287 2.63-1.129 15.969-8.977c.752.654 1.326 1.027 1.621 1.703-4.075 2.311-16.344 7.506-26.246 12.313z"/><path opacity=".7" fill="#7F4D24" d="M50.989 49.05l-1.453.809 10.608 9.559s2.42 1.121 6.211-.148l15.215-8.006s-1.143-5.103-1.777-5.023c-.635.081-9.611-.554-12.137-.81S50.989 49.05 50.989 49.05z"/><path fill="#EFE7D5" d="M62.483 58.533c-.501 0-.857-.055-1.123-.176l-.069-.031-9.94-7.465-.137-6.149 11.551-4.433 15.442-.37.56 11.486-14.181 6.934-.1.018c-.045.007-1.117.186-2.003.186z"/><path fill="#514C47" d="M77.541 40.625l.504 10.341-13.676 6.69s-1.049.178-1.886.178c-.342 0-.648-.029-.834-.113l-9.606-7.215-.118-5.317 10.978-4.213 14.638-.351m1.332-1.432l-1.365.033-14.639.351-.242.005-.227.086-10.978 4.213-.92.353.022.985.118 5.317.015.68.544.408 9.606 7.215.123.092.141.064c.359.162.808.238 1.411.238.944 0 2.072-.189 2.12-.199l.199-.033.182-.088 13.676-6.689.828-.404-.045-.922-.504-10.341-.065-1.364z"/><path fill="#FFF8D7" d="M62.361 50.667c-1.447-.506-7.002-5.575-7.002-5.575l2.445-2.161-5.88 2.257.118 5.317 9.606 7.215c.639.289 2.72-.064 2.72-.064l13.676-6.69-.178-3.674-6.096 1.784c-5.293 1.547-9.409 1.591-9.409 1.591z"/><path fill="#A3927B" d="M64.369 57.656l13.676-6.69-.185-3.799-13.132 5.948-1.779.043c-2.156-1.438-8.586-6.119-10.984-7.984l-.04.015.118 5.317 9.606 7.215c.639.289 2.72-.065 2.72-.065z"/><path opacity=".7" fill="#7F4D24" d="M16.74 43.051l-1.406.809 10.275 9.566s2.344 1.125 6.011-.145l14.721-7.994s-1.11-5.104-1.725-5.024c-.614.08-9.304-.562-11.747-.818-2.445-.258-16.129 3.606-16.129 3.606z"/><path fill="#EFE7D5" d="M27.401 51.668c-.5 0-.855-.055-1.12-.174l-.071-.033-9.94-7.467-.137-6.147 11.552-4.435 15.442-.37.561 11.485-14.182 6.935-.1.018c-.046.008-1.119.188-2.005.188z"/><path fill="#514C47" d="M42.46 33.759l.505 10.343-13.677 6.687s-1.05.18-1.888.18c-.341 0-.647-.031-.833-.113l-9.606-7.216-.118-5.314 10.979-4.215 14.638-.352m1.332-1.432l-1.365.033-14.638.35-.242.005-.226.087-10.979 4.215-.919.353.022.985.118 5.314.015.68.544.409 9.606 7.216.124.094.142.063c.358.162.805.236 1.407.236.945 0 2.075-.189 2.122-.197l.199-.033.181-.09 13.677-6.688.829-.405-.045-.921-.505-10.343-.067-1.363z"/><path fill="#FFF8D7" d="M27.282 43.915c-1.449-.504-7.002-5.575-7.002-5.575l2.445-2.16-5.88 2.258.118 5.314 9.606 7.216c.64.288 2.72-.066 2.72-.066l13.677-6.687-.18-3.675-6.094 1.782c-5.296 1.549-9.41 1.593-9.41 1.593z"/><path fill="#A3927B" d="M29.289 50.902l13.677-6.687-.186-3.801-13.132 5.949-1.779.043c-2.157-1.438-8.585-6.119-10.984-7.984l-.041.016.118 5.314 9.606 7.216c.64.288 2.721-.066 2.721-.066z"/><path fill="#FFF8D7" d="M71.718 15.745s-.312-.158-.842-.401l-4.356 5.335c-7.344 11.345-14.912 10.272-14.912 10.272-2.121.263-2.293-4.584-2.117-8.317l-.572.81c-.552 1.787-.594 11.348-.594 11.348.638 1.01 4.385 3.313 4.385 3.313 2.035-.847 10.275-4.243 10.275-4.243 3.209-3.39 10.432-15.627 10.432-15.627l-1.699-2.49z"/><path fill="#A3927B" d="M71.199 15.494c-2.481 3.889-8.867 13.83-10.236 15.233 0 0-7.293 3.841-12.464 4.288.961 1.09 4.21 3.089 4.21 3.089 2.035-.847 10.275-4.243 10.275-4.243 3.209-3.39 10.432-15.627 10.432-15.627l-1.698-2.489s-.191-.096-.519-.251z"/><ellipse transform="rotate(-1.403 45.233 67.442)" fill="#FEED87" cx="45.196" cy="67.304" rx="3.304" ry="1.39"/><path fill="#FEED87" d="M32.942 62.111l-.598-2.748-4.757-2.039-2.427-1.518-14.404-11.318c-.843.532-1.467.813-1.863 1.435 3.671 2.908 15.001 9.921 24.049 16.188z"/><path fill="#342300" d="M58.389 14.833l1.787.314.021.937 1.84-.044 2.576-.062-1.189 1.732s-1.828.588-1.859.589l-1.072.025.027 1.226 1.082.383s.85.932.36 1.014c-.489.08-3.436.082-3.436.082s-1.028.617-1.024.831c.005.215-1.138 1.265-.216 1.312.921.045 3.803-.092 3.803-.092s-.073 2.25-.44 2.259c-.369.009-2.973-1.225-2.973-1.225s1.267 1.401-1.092 1.799c-2.357.397-3.031.48-3.031.48l2.393-2.834s1.446-1.142-.193-.421c-1.642.722-1.093.572-1.642.722-.548.148-1.803-1.047-1.813-1.524-.01-.476-.533-1.895.576-1.648 1.11.246 3.18-.553 3.18-.553s1.14-1.185 1.449-1.057c.31.129.867-1.314.867-1.314l-1.41-.989 1.096-.435 1.424.512-1.091-2.019zM32.012 41.926l-1.83-.315.025-.541-1.903-.114-2.664-.159 1.314-.905s1.917-.199 1.949-.197l1.109.066.033-.706-1.099-.302s-.832-.602-.322-.611c.509-.009 3.552.214 3.552.214s1.094-.275 1.099-.399c.006-.125 1.239-.64.289-.737-.95-.097-3.933-.236-3.933-.236s.187-1.288.567-1.264c.381.022 3.01.93 3.01.93s-1.24-.901 1.216-.951c2.456-.05 3.155-.047 3.155-.047L34.968 37.1s-1.552.546.179.255c1.73-.288 1.156-.245 1.73-.288.574-.045 1.811.738 1.798 1.013-.012.274.457 1.13-.678.904-1.134-.226-3.311.075-3.311.075s-1.236.595-1.549.497c-.314-.097-.962.69-.962.69l1.407.674-1.152.168-1.444-.402 1.026 1.24zm32.98 7.027l-1.752-1.066.205-.538-1.893-.893-2.648-1.248 1.633-.379s2.01.58 2.041.596l1.104.52.267-.701-1.014-.754s-.645-.947-.126-.748c.521.197 3.532 1.665 3.532 1.665s1.2.168 1.246.044c.047-.123 1.467-.142.537-.627-.932-.484-3.91-1.844-3.91-1.844s.617-1.227.995-1.047c.378.178 2.743 2.167 2.743 2.167s-.957-1.417 1.548-.465a183.5 183.5 0 0 1 3.214 1.24l-3.126.399s-1.753-.082.097.332c1.851.414 1.254.223 1.851.414.597.189 1.592 1.485 1.487 1.759-.104.271.09 1.328-.986.637-1.076-.691-3.383-1.274-3.383-1.274s-1.449.097-1.734-.13c-.287-.226-1.204.307-1.204.307l1.204 1.256-1.225-.301-1.33-.995.627 1.674z"/></svg>