<svg xmlns="http://www.w3.org/2000/svg" width="100" height="100" viewBox="0 0 100 100"><path fill="#9D0E02" stroke="#7F2828" stroke-width="2.007" stroke-miterlimit="10" d="M26.693 69.703a6.765 6.765 0 0 0-3.845-1.193c-3.722 0-6.739 2.98-6.739 6.656 0 3.23 2.333 5.924 5.425 6.527a6.765 6.765 0 0 0 3.845 1.193c3.722 0 6.739-2.979 6.739-6.656 0-3.232-2.332-5.923-5.425-6.527z"/><ellipse fill="#AC290D" cx="25.406" cy="76.125" rx="6.446" ry="6.365"/><ellipse fill="#BFBAA8" stroke="#666457" stroke-width=".803" stroke-miterlimit="10" cx="25.82" cy="76.482" rx="2.141" ry="2.115"/><path fill="#9D0E02" stroke="#7F2828" stroke-width="2.007" stroke-miterlimit="10" d="M55.555 69.703a6.761 6.761 0 0 0-3.846-1.193c-3.72 0-6.738 2.98-6.738 6.656 0 3.23 2.333 5.924 5.425 6.527a6.767 6.767 0 0 0 3.844 1.193c3.723 0 6.74-2.979 6.74-6.656 0-3.232-2.332-5.923-5.425-6.527z"/><ellipse fill="#AC290D" cx="54.267" cy="76.125" rx="6.446" ry="6.365"/><ellipse fill="#BFBAA8" stroke="#666457" stroke-width=".803" stroke-miterlimit="10" cx="54.682" cy="76.482" rx="2.141" ry="2.115"/><path fill="#B30902" stroke="#7F2828" stroke-width="2.007" stroke-miterlimit="10" d="M38.049 74.893a6.75 6.75 0 0 0-3.845-1.193c-3.722 0-6.739 2.98-6.739 6.656 0 3.23 2.332 5.924 5.425 6.527a6.765 6.765 0 0 0 3.845 1.193c3.722 0 6.739-2.98 6.739-6.656 0-3.232-2.332-5.924-5.425-6.527z"/><path fill="#E6DFDC" stroke="#56554F" stroke-width="3.511" stroke-linejoin="round" stroke-miterlimit="10" d="M52.201 30.192l24.959 9.53-1.765 3.944-2.516.364-5.656 22.947.658.484-1.106 6.238-35.618.313-10.367-5.715-.878-5.287.474-.559-4.048-15.453-2.43-1.123-.805-4.217 38.555-11.466 25.502 9.53"/><ellipse fill="#EC280A" cx="36.761" cy="81.313" rx="6.446" ry="6.367"/><ellipse fill="#BFBAA8" stroke="#666457" stroke-width=".803" stroke-miterlimit="10" cx="37.176" cy="81.672" rx="2.14" ry="2.115"/><path fill="#B30902" stroke="#7F2828" stroke-width="2.007" stroke-miterlimit="10" d="M63.141 72.604a6.75 6.75 0 0 0-3.844-1.193c-3.723 0-6.738 2.979-6.738 6.654 0 3.232 2.332 5.924 5.424 6.529a6.764 6.764 0 0 0 3.844 1.193c3.721 0 6.74-2.98 6.74-6.656-.001-3.233-2.333-5.924-5.426-6.527z"/><ellipse fill="#EC280A" cx="61.853" cy="79.023" rx="6.446" ry="6.367"/><ellipse fill="#BFBAA8" stroke="#666457" stroke-width=".803" stroke-miterlimit="10" cx="62.268" cy="79.383" rx="2.141" ry="2.115"/><path fill="#B3A995" d="M19.917 62.717l30.093-2.361 17.876 7.105s-1.861 3.951-2.779 3.951c-.92 0-31.882-.676-31.882-.676l-10.173-3.275-3.135-4.744z"/><path fill="#82808C" d="M19.917 63.01l.878 5.287 10.367 5.715v-5.987z"/><path fill="#CCBDA5" d="M31.162 68.025l36.725-.564-1.065 6.066-35.66.485z"/><path fill="#7E7C95" d="M13.103 42.065l18.059 6.521.503 19.432-2.516-1.455-1.665-16.388-6.271-2.425 3.01 16.389-3.777-1.479-4.103-15.662-2.321-.915z"/><path fill="#E6DFDC" d="M31.665 48.753l45.292-9.108-25.299-9.453-38.555 11.466.094.493z"/><path fill="#C6BCA6" d="M31.162 48.586l45.658-8.933-1.422 4.013-2.515.364-5.701 23.13h-3.496l3.343-22.252-6.353 1.254-4.182 20.998h-3.678l2.76-19.995-8.612 1.588-3.062 19.077h-4.379l2.09-18.074-7.441 1.004.418 17.213-2.925.045z"/><path fill="#999287" d="M21.328 41.813l29.131-8.264 15.162 5.359-33.638 6.848z"/><path fill="#D63311" d="M49.172 24.102l-.1-.761c-.015-.109-1.31-10.957 9.504-12.412l.098-.013.098.006c2.248.136 6.455 1.508 6.293 5.723l-.02.501-11.016 7.612-4.857-.656z"/><path fill="#7F3126" d="M58.711 11.923s5.518.335 5.352 4.683L53.78 23.711l-3.712-.501c-.001 0-1.306-9.948 8.643-11.287m-.074-2.014l-.193.026c-9.438 1.27-10.907 9.41-10.366 13.537l.2 1.522 1.521.205 3.711.501.77.104.641-.442 10.283-7.105.826-.571.037-1.003c.193-4.991-4.648-6.606-7.234-6.763l-.196-.011z"/><path fill="#D63311" d="M76.441 27.755l-18.248-5.842-.146-.518c-1.012-3.575 2.047-6.147 3.807-7.008l.355-.173 21.408 6.512-.123 3.856-2.555 4.529-4.498-1.356z"/><path fill="#7F3126" d="M62.295 15.288l20.295 6.173-.09 2.841-2.039 3.615-3.73-1.123-17.719-5.673c-1.051-3.713 3.283-5.833 3.283-5.833m-.172-2.15l-.711.348c-2.02.988-5.523 3.97-4.33 8.183l.293 1.036 1.025.329 17.719 5.673 3.764 1.133 1.537.463.789-1.398 2.039-3.615.242-.429.016-.493.09-2.841.049-1.536-1.471-.448-20.295-6.173-.756-.232z"/><path fill="#BFBAA8" d="M72.164 40.216c-2.072 0-2.992-.818-3.398-1.504l-.145-.244.039-.28c.068-.472 1.746-11.565 8.943-13.528l.412-.112.324.28c1.945 1.683 1.963 2.167 1.973 2.427l.012.349-.27.313c-.131.215-1.012 2.187-1.752 3.928l-.154.361-.379.101c0 .001-2.316.843-2.834 6.942l-.049.57-.555.14c-.04.01-1.03.257-2.167.257z"/><path fill="#56554F" d="M77.814 25.435s1.924 1.665 1.674 1.916c-.252.25-1.924 4.181-1.924 4.181s-2.842.752-3.428 7.65c0 0-.924.233-1.973.233-1.031 0-2.184-.224-2.709-1.111.001-.001 1.589-11.023 8.36-12.869m.405-1.774l-.826.225c-7.701 2.1-9.455 13.696-9.525 14.188l-.082.561.289.487c.514.866 1.639 1.897 4.09 1.897 1.215 0 2.25-.252 2.365-.281l1.109-.28.098-1.141c.416-4.913 1.998-6.066 2.293-6.241l.865-.105.146-.811c.662-1.554 1.492-3.423 1.732-3.847a1.72 1.72 0 0 0 .342-1.087c-.018-.461-.041-1.093-2.25-3.005l-.646-.56z"/><path fill="#8E8676" d="M70.961 39.286c1.424.335 3.176-.105 3.176-.105.586-6.897 3.428-7.65 3.428-7.65s1.672-3.93 1.924-4.181c.051-.052-.004-.171-.102-.316-1.612.397-5.875 2.383-8.426 12.252z"/><path fill="#FF6525" d="M62.703 18.358l16.514 4.883-.061-2.232-14.777-4.501c0 .001-1.01.674-1.676 1.85z"/><path fill="#D63311" d="M76.596 32.228l-.033-.626c-.248-4.631 1.705-7.964 2.061-8.529 1.037-2.295 3.676-3.508 7.637-3.508 1.316 0 2.281.143 2.322.149l.258.039 1.684 1.296v7.433l-8.221 6.166-5.708-2.42z"/><path fill="#7F3126" d="M86.26 20.568c1.256 0 2.174.138 2.174.138l1.088.837v6.437l-7.359 5.518-4.598-1.95c-.252-4.708 1.945-7.999 1.945-7.999 1.092-2.53 4.476-2.981 6.75-2.981m0-2.006c-4.291 0-7.309 1.433-8.523 4.039-.484.792-2.43 4.297-2.176 9.055l.066 1.251 1.154.489 4.598 1.95 1.064.451.924-.693 7.357-5.518.803-.602v-8.429l-.783-.603-1.088-.837-.412-.317-.514-.077c-.042-.006-1.08-.159-2.47-.159z"/><path fill="#BFBAA8" d="M53.393 32.933c-1.629 0-2.78-.261-3.42-.777l-.289-.231-.011-.37c-.003-.119-.241-11.92 9.528-13.607l.316-.054.266.177c1.053.701 2.631 2.318 1.871 3.935l-.1.211-.199.126c-.049.031-4.938 3.199-6.59 9.963l-.139.573-.59.038c.001 0-.257.016-.643.016z"/><path fill="#56554F" d="M59.338 18.739s2.258 1.504 1.59 2.925c0 0-5.186 3.261-6.941 10.452 0 0-.236.015-.594.015-.82 0-2.27-.079-2.917-.6-.001 0-.334-11.204 8.862-12.792m.357-1.691l-.631.109c-8.359 1.444-10.323 10.065-10.194 14.422l.022.739.576.464c.293.236 1.186.955 3.924.955.418 0 .695-.018.695-.018l1.176-.077.283-1.145c1.566-6.422 6.193-9.447 6.24-9.477l.391-.25.203-.423c.926-1.973-.58-3.896-2.152-4.944l-.533-.355z"/><path fill="#8E8676" d="M52.1 32.056c.947.118 1.887.06 1.887.06 1.756-7.191 6.941-10.452 6.941-10.452.293-.625.021-1.266-.377-1.789-6.28 2.036-7.998 9.085-8.451 12.181z"/><path fill="#FF6525" d="M81.902 21.328c-1.117 2.667-2.287 7.466 7.619.648v-.433l-1.088-.837c.001 0-3.794-.562-6.531.622zm-25.566-6.13s4.158-.233 4.326-1.625c-.797-.795-1.949-1.141-2.684-1.284a3.062 3.062 0 0 0-.939.301s-7.021 3.276-.703 2.608z"/><path fill="none" stroke="#847D6F" stroke-width="1.003" stroke-miterlimit="10" d="M34.59 67.973l-.418-17.213 7.441-1.004-2.09 18.074"/><path fill="none" stroke="#5B5E6B" stroke-width="1.003" stroke-miterlimit="10" d="M29.149 66.563l-1.665-16.388-6.156-2.449 2.895 16.413"/><path fill="none" stroke="#7F786A" stroke-width="1.003" stroke-miterlimit="10" d="M44.079 67.826l2.885-19.073 8.612-1.588-2.601 19.995"/><path fill="none" stroke="#847D6F" stroke-width="1.003" stroke-miterlimit="10" d="M63.686 67.16l3.343-22.252-6.353 1.254-4.182 20.998"/></svg>