<svg xmlns="http://www.w3.org/2000/svg" width="100" height="100" viewBox="0 0 100 100"><path fill="#F19A18" d="M55.539 93.022c-.078 0-.156-.009-.233-.027l-34-8.166a1.001 1.001 0 0 1-.754-.815l-5.333-33.5a1.001 1.001 0 0 1 .988-1.157l65.88 3.001a1 1 0 0 1 .944 1.142L78.36 85.832a.998.998 0 0 1-.711.817l-21.832 6.333a.968.968 0 0 1-.278.04z"/><path fill="#825022" d="M16.205 50.356l65.834 3-4.668 32.333-21.832 6.333-34-8.166-5.334-33.5m0-2a2 2 0 0 0-1.975 2.314l5.333 33.5a2 2 0 0 0 1.508 1.63l34.001 8.166a1.995 1.995 0 0 0 1.025-.023l21.832-6.333a2 2 0 0 0 1.422-1.635l4.668-32.333a2 2 0 0 0-1.888-2.285l-65.834-3-.092-.001z"/><path fill="#C86602" d="M52.347 52.003l2.704 39.902.488.117 21.832-6.333 4.668-32.333z"/><path fill="#B95609" d="M17.781 60.256l.476 2.991 36.306 13.567 25.886-12.446.11-6.012-62.875-2.042z"/><path fill="#AF4100" d="M51.178 57.401l2.504 19.071.881.342 25.886-12.446.867-6.012z"/><path fill="#C00D15" stroke="#842121" stroke-miterlimit="10" d="M33.985 87.848L29.371 59.19l10.5 1s3.167 26.667 3.114 30.491l-9-2.833zm28.243 3.544l9.534-3.265s1.943-27.271 2.277-29.771l-11.834.833.023 32.203z"/><path fill="#F19A18" d="M53.371 68.356c-.077 0-.154-.009-.229-.026l-38.833-9.167a1.002 1.002 0 0 1-.745-.752l-3-13.167a1.003 1.003 0 0 1 .762-1.199l34.5-7.5a1.021 1.021 0 0 1 .397-.006l40.166 7.5a1 1 0 0 1 .791 1.209l-3.166 13.667a1 1 0 0 1-.694.734l-29.668 8.667a.994.994 0 0 1-.281.04z"/><path fill="#825022" d="M46.039 37.522l40.166 7.5-3.166 13.667-29.668 8.667-38.833-9.167-3-13.167 34.501-7.5m0-2c-.143 0-.285.015-.425.045l-34.5 7.5a2.002 2.002 0 0 0-1.526 2.4l3 13.167a2 2 0 0 0 1.491 1.502l38.832 9.167a1.987 1.987 0 0 0 1.021-.026L83.6 60.609a2.002 2.002 0 0 0 1.388-1.469l3.166-13.667a2.002 2.002 0 0 0-1.581-2.417l-40.166-7.5a2.074 2.074 0 0 0-.368-.034z"/><path fill="#EBC512" d="M11.539 45.022l.116.51 36.984 8.532 3.708 10.5.977-9.755 32.657-8.82.224-.967-40.166-7.5z"/><path fill="#C00D15" stroke="#842121" stroke-miterlimit="10" d="M27.872 63.022l12.641 2.689-1.141-13.272 28.75-9.417-17.083-2.666s-23.834 7.5-25.334 8.5c0 0 1.167 9.166 2.167 14.166z"/><path fill="#CC6E03" d="M53.074 55.564l-.507 11.603.804.189 29.668-8.667 3.159-13.636z"/><path fill="#C00D15" stroke="#842121" stroke-miterlimit="10" d="M23.083 41.946s37.622 6.91 41.456 8.41c0 0 .604.771.604 1.646l-.25 13.71 11-3.022.813-14.75s.313-1.688-2-1.875l-38.5-7.563-14.813 3.063-.86.936 2.55-.555z"/><path fill="#C00D15" stroke="#842121" stroke-width="2" stroke-miterlimit="10" d="M52.49 41.7s10.465-19.448 15.277-22.136c0 0 4.188-3.5 6.75 2.625 0 0 4 5.016 6.625 7.945 0 0 4.875 7.742 0 10.68 0 0-5.063 2.875-18.25 2.375l-10.402-.25V41.7z"/><path fill="#C00D15" stroke="#842121" stroke-width="2" stroke-miterlimit="10" d="M37.58 22.439s-3.063-4.313 3.063-7.625c0 0 14.5-8.688 21.563-.313 0 0 2.375 3.75-1.063 7 0 0-7.429 14.609-7.715 18.492l-6.514-1.117c0 .001-1.855-11.218-9.334-16.437z"/><path fill="#890307" d="M39.302 21.373s2.084-3.953 6.167-3.036c0 0 2.666 2.5 2.084 5.75 0 0-1.166 7.833-1.084 11l-3-.584-4.167-13.13z"/><path fill="#C00D15" stroke="#842121" stroke-width="2" stroke-miterlimit="10" d="M30.768 16.877s3.5-2.375 5.188 0c0 0 9.673 10.58 9.625 22.063l-5.25 4.309s-9.938.358-20.313-5.726c0 0-4.688-2.208-2.5-7.021 0 0 5.562-9.875 13.25-13.625z"/><path fill="#C00D15" stroke="#842121" stroke-width="2" stroke-miterlimit="10" d="M50.143 46.877s.5-2.188 3-3c0 0 4.438-6.208-2.375-6.354 0 0-15.5-1.333-11.438 5.917 0 0 .5 2.188 4.625 2.125l6.188 1.312z"/><ellipse fill="#FF3E5A" cx="48.019" cy="39.429" rx="5.033" ry="1.242"/><path fill="#FF3E5A" d="M26.533 48.939s12.186 1.465 12.77 2.048c0 0-.77 2.225-2.02 2.047 0 0-9.834-3.012-10.75-4.095zm37.25 0l11.75-1.583s2.416 1.5-6.918 3c0 0-2.679-2.059-4.832-1.417zm-36.75-28s6.333-6.167 10.5 0c0 0-4.655 7.104-11.828 9.969 0 0-6.505-.636-6.672 1.031 0 0 5.25-9.667 8-11zm12.666-4s15.084-9.653 21.834-1.118c0 0-1.334 5.201-5.167 4.868 0 0-8.917-.908-10.333-2.12 0 0-5.151-1.902-6.731-.713l.397-.917zm27.493 4.833s2.923-3.666 5.257 0c0 0 4.834 6.417 5.917 9.5 0 0-5.25 2.584-7.083 2.917 0 0-12.262 1.583-4.5-12.25"/><path fill="#890307" d="M56.283 42.151s2.512-.471 5.922-2.157c6.071-3.005 15.115-7.837 18.798-6.29 0 0 1.917 4.41-1.25 5.83 0 0-18.888 2.535-23.47 2.617zm-33.801-4.877s-3.25-3.333-2.167-3.75c0 0 6.417-1.583 12.167 2.5 0 0 6 5.627 6.167 6.127l-13.616-2.723-2.551-2.154z"/><ellipse opacity=".7" fill="#FFF" cx="51.178" cy="54.229" rx="2.947" ry=".85"/></svg>