<svg xmlns="http://www.w3.org/2000/svg" width="84" height="84" viewBox="0 0 84 84"><circle fill="#FF6900" cx="42" cy="42" r="40"/><path fill="#FFF" d="M68.174 39.535s-2.378-10.107-6.599-20.581c0 0-5.222 1.567-9.406 7.471 0 0-3.107-1.357-10.07-1.549v-.003c-.013 0-.018 0-.029.003-.006-.003-.014-.003-.023-.003v.003c-.015 0-.029.004-.044.004-.018 0-.031-.004-.045-.004v-.003c-.01 0-.017 0-.024.003-.01-.003-.015-.003-.027-.003v.003c-6.964.192-10.071 1.549-10.071 1.549-4.185-5.903-9.407-7.471-9.407-7.471-4.221 10.474-6.598 20.581-6.598 20.581-2.578 10.207.991 16.068.991 16.068 6.734 12.067 24.59 12.073 25.11 12.067h.138c.521.006 18.377 0 25.111-12.066 0 0 3.57-5.862.993-16.069zM27.944 51.75c-3.414-1.707-5.455-5.057-5.671-8.613a10.319 10.319 0 0 1 10.293-.613 10.31 10.31 0 0 1 5.673 8.607c-2.98 1.959-6.883 2.332-10.295.619zm28.619 0c-3.416 1.713-7.316 1.34-10.295-.619a10.3 10.3 0 0 1 5.672-8.607c3.416-1.707 7.316-1.34 10.295.613-.216 3.556-2.257 6.906-5.672 8.613z"/><path fill="#FFF" d="M28.639 47.1c-.024 2.23 1.069 3.551 1.618 4.227.545-.676 1.638-1.996 1.61-4.227-.026-1.984-1.051-3.443-1.61-4.149-.56.705-1.59 2.164-1.618 4.149zm24 0c-.026 2.23 1.067 3.551 1.616 4.227.543-.676 1.64-1.996 1.609-4.227-.023-1.984-1.051-3.443-1.609-4.149-.561.705-1.59 2.164-1.616 4.149z"/><path fill="#FF6900" d="M63.997 34.339s-2.918-4.058-8.338-6.585c0 0 3.475-7.13 4.479-5.785 0 .001 3.025 4.187 3.859 12.37zm-44 0s2.92-4.058 8.341-6.585c0 0-3.475-7.13-4.479-5.785 0 .001-3.026 4.187-3.862 12.37z"/></svg>