<svg width="1921" height="221" viewBox="0 0 1921 221" fill="none" xmlns="http://www.w3.org/2000/svg">
<path d="M34 194.5C26.8 182.5 8.66667 182.167 0.5 183.5V0.5H1920.5V181C1904.9 177.8 1883.67 193 1875 201C1803.4 49.4 1652.5 124 1635 195.5C1571 137.1 1503.5 179.5 1488 208.5C1428 134.9 1351 170.5 1332 201C1259.2 99.4 1157.5 154 1129 201C1066.2 130.2 986 179.5 970 220.5C924.4 98.5 783 135.5 755 213C706.6 159.8 653.5 184.5 633 203.5C566.6 96.3 451 147.5 428 199.5C370.4 140.3 307.667 171.5 283.5 194.5C204.5 29.5 55 119.5 34 194.5Z" fill="#1E263F"/>
</svg>
